<svg width="50" height="51" viewBox="0 0 50 51" fill="none" xmlns="http://www.w3.org/2000/svg">
<path d="M22.9167 27.625H27.0833V14.875H22.9167V27.625ZM25 34C25.5903 34 26.0854 33.796 26.4854 33.388C26.884 32.9814 27.0833 32.4771 27.0833 31.875C27.0833 31.2729 26.884 30.7679 26.4854 30.3599C26.0854 29.9533 25.5903 29.75 25 29.75C24.4097 29.75 23.9153 29.9533 23.5167 30.3599C23.1167 30.7679 22.9167 31.2729 22.9167 31.875C22.9167 32.4771 23.1167 32.9814 23.5167 33.388C23.9153 33.796 24.4097 34 25 34ZM27.9688 45.5813C27.1701 46.3959 26.1806 46.8031 25 46.8031C23.8194 46.8031 22.8299 46.3959 22.0312 45.5813L5.3125 28.5281C4.51389 27.7136 4.11458 26.7042 4.11458 25.5C4.11458 24.2959 4.51389 23.2865 5.3125 22.4719L22.0312 5.41877C22.8299 4.60419 23.8194 4.1969 25 4.1969C26.1806 4.1969 27.1701 4.60419 27.9688 5.41877L44.6875 22.4719C45.4861 23.2865 45.8854 24.2959 45.8854 25.5C45.8854 26.7042 45.4861 27.7136 44.6875 28.5281L27.9688 45.5813Z" fill="#20DF7F" fill-opacity="0.8"/>
</svg>
